<?xml version="1.0" encoding="UTF-8" standalone="no"?>
<!DOCTYPE svg PUBLIC "-//W3C//DTD SVG 1.1//EN"
 "http://www.w3.org/Graphics/SVG/1.1/DTD/svg11.dtd">
<!-- Generated by graphviz version 12.2.0 (20241103.1931)
 -->
<!-- Pages: 1 -->
<svg width="1137pt" height="219pt"
 viewBox="0.00 0.00 1136.71 218.80" xmlns="http://www.w3.org/2000/svg" xmlns:xlink="http://www.w3.org/1999/xlink">
<g id="graph0" class="graph" transform="scale(1 1) rotate(0) translate(14.4 204.4)">
<polygon fill="white" stroke="none" points="-14.4,14.4 -14.4,-204.4 1122.31,-204.4 1122.31,14.4 -14.4,14.4"/>
<g id="clust1" class="cluster">
<title>cluster_inputs</title>
<polygon fill="white" stroke="#d1d5db" stroke-width="1.6" points="8,-19 8,-170 144.52,-170 144.52,-19 8,-19"/>
<text text-anchor="middle" x="76.26" y="-152.7" font-family="Times,serif" font-size="14.00">Inputs</text>
</g>
<g id="clust2" class="cluster">
<title>cluster_metrics</title>
<path fill="white" stroke="#2563eb" stroke-width="1.8" d="M176.52,-99C176.52,-99 381.06,-99 381.06,-99 387.06,-99 393.06,-105 393.06,-111 393.06,-111 393.06,-170 393.06,-170 393.06,-176 387.06,-182 381.06,-182 381.06,-182 176.52,-182 176.52,-182 170.52,-182 164.52,-176 164.52,-170 164.52,-170 164.52,-111 164.52,-111 164.52,-105 170.52,-99 176.52,-99"/>
<text text-anchor="middle" x="278.79" y="-164.7" font-family="Times,serif" font-size="14.00">Metrics Branch</text>
</g>
<g id="clust3" class="cluster">
<title>cluster_embed</title>
<path fill="white" stroke="#059669" stroke-width="1.8" d="M176.52,-8C176.52,-8 384.06,-8 384.06,-8 390.06,-8 396.06,-14 396.06,-20 396.06,-20 396.06,-79 396.06,-79 396.06,-85 390.06,-91 384.06,-91 384.06,-91 176.52,-91 176.52,-91 170.52,-91 164.52,-85 164.52,-79 164.52,-79 164.52,-20 164.52,-20 164.52,-14 170.52,-8 176.52,-8"/>
<text text-anchor="middle" x="280.29" y="-73.7" font-family="Times,serif" font-size="14.00">Embedding Branch</text>
</g>
<g id="clust4" class="cluster">
<title>cluster_head</title>
<path fill="white" stroke="#7c3aed" stroke-width="1.8" d="M428.06,-43C428.06,-43 906.14,-43 906.14,-43 912.14,-43 918.14,-49 918.14,-55 918.14,-55 918.14,-130 918.14,-130 918.14,-136 912.14,-142 906.14,-142 906.14,-142 428.06,-142 428.06,-142 422.06,-142 416.06,-136 416.06,-130 416.06,-130 416.06,-55 416.06,-55 416.06,-49 422.06,-43 428.06,-43"/>
<text text-anchor="middle" x="667.1" y="-124.7" font-family="Times,serif" font-size="14.00">Classification Head</text>
</g>
<!-- x_metrics -->
<g id="node1" class="node">
<title>x_metrics</title>
<path fill="#eef2ff" stroke="#d1d5db" d="M124.52,-137.38C124.52,-137.38 28,-137.38 28,-137.38 22,-137.38 16,-131.38 16,-125.38 16,-125.38 16,-106.62 16,-106.62 16,-100.62 22,-94.62 28,-94.62 28,-94.62 124.52,-94.62 124.52,-94.62 130.52,-94.62 136.52,-100.62 136.52,-106.62 136.52,-106.62 136.52,-125.38 136.52,-125.38 136.52,-131.38 130.52,-137.38 124.52,-137.38"/>
<text text-anchor="start" x="38.76" y="-120.17" font-family="Helvetica,sans-Serif" font-weight="bold" font-size="11.00" fill="#111827">Metrics Vector</text>
<text text-anchor="start" x="23.76" y="-105.08" font-family="monospace" font-size="9.00" fill="#374151">k features (CK/CKJM)</text>
</g>
<!-- m_dense1 -->
<g id="node3" class="node">
<title>m_dense1</title>
<path fill="white" stroke="#d1d5db" d="M270.54,-149.38C270.54,-149.38 184.52,-149.38 184.52,-149.38 178.52,-149.38 172.52,-143.38 172.52,-137.38 172.52,-137.38 172.52,-118.62 172.52,-118.62 172.52,-112.62 178.52,-106.62 184.52,-106.62 184.52,-106.62 270.54,-106.62 270.54,-106.62 276.54,-106.62 282.54,-112.62 282.54,-118.62 282.54,-118.62 282.54,-137.38 282.54,-137.38 282.54,-143.38 276.54,-149.38 270.54,-149.38"/>
<text text-anchor="start" x="200.53" y="-132.18" font-family="Helvetica,sans-Serif" font-weight="bold" font-size="11.00" fill="#111827">Dense 128</text>
<text text-anchor="start" x="180.28" y="-117.08" font-family="monospace" font-size="9.00" fill="#374151">ReLU + Dropout 0.2</text>
</g>
<!-- x_metrics&#45;&gt;m_dense1 -->
<g id="edge1" class="edge">
<title>x_metrics&#45;&gt;m_dense1</title>
<path fill="none" stroke="#6b7280" stroke-width="1.3" d="M136.68,-111.58C145.46,-112.08 154.54,-112.78 163.39,-113.65"/>
<polygon fill="#6b7280" stroke="#6b7280" stroke-width="1.3" points="162.98,-116.07 170.19,-114.36 163.49,-111.2 162.98,-116.07"/>
</g>
<!-- x_metrics&#45;&gt;m_dense1 -->
<g id="edge10" class="edge">
<title>x_metrics&#45;&gt;m_dense1</title>
<path fill="none" stroke="#6b7280" stroke-width="1.3" d="M136.68,-129.98C145.46,-130.89 154.54,-131.64 163.39,-132.2"/>
<polygon fill="#6b7280" stroke="#6b7280" stroke-width="1.3" points="163.06,-134.63 170.19,-132.58 163.34,-129.74 163.06,-134.63"/>
<text text-anchor="middle" x="146.7" y="-123.01" font-family="Helvetica,sans-Serif" font-size="9.00">k×1</text>
</g>
<!-- x_embed -->
<g id="node2" class="node">
<title>x_embed</title>
<path fill="#f0fdf4" stroke="#d1d5db" d="M114.02,-69.38C114.02,-69.38 38.5,-69.38 38.5,-69.38 32.5,-69.38 26.5,-63.38 26.5,-57.38 26.5,-57.38 26.5,-38.61 26.5,-38.61 26.5,-32.62 32.5,-26.62 38.5,-26.62 38.5,-26.62 114.02,-26.62 114.02,-26.62 120.02,-26.62 126.02,-32.62 126.02,-38.62 126.02,-38.62 126.02,-57.38 126.02,-57.38 126.02,-63.38 120.02,-69.38 114.02,-69.38"/>
<text text-anchor="start" x="34.26" y="-52.17" font-family="Helvetica,sans-Serif" font-weight="bold" font-size="11.00" fill="#111827">CodeBERT CLS</text>
<text text-anchor="start" x="63.13" y="-37.08" font-family="monospace" font-size="9.00" fill="#374151">768&#45;d</text>
</g>
<!-- e_dense1 -->
<g id="node5" class="node">
<title>e_dense1</title>
<path fill="white" stroke="#d1d5db" d="M270.54,-58.38C270.54,-58.38 184.52,-58.38 184.52,-58.38 178.52,-58.38 172.52,-52.38 172.52,-46.38 172.52,-46.38 172.52,-27.62 172.52,-27.62 172.52,-21.62 178.52,-15.62 184.52,-15.62 184.52,-15.62 270.54,-15.62 270.54,-15.62 276.54,-15.62 282.54,-21.62 282.54,-27.62 282.54,-27.62 282.54,-46.38 282.54,-46.38 282.54,-52.38 276.54,-58.38 270.54,-58.38"/>
<text text-anchor="start" x="200.53" y="-41.17" font-family="Helvetica,sans-Serif" font-weight="bold" font-size="11.00" fill="#111827">Dense 256</text>
<text text-anchor="start" x="180.28" y="-26.07" font-family="monospace" font-size="9.00" fill="#374151">ReLU + Dropout 0.2</text>
</g>
<!-- x_embed&#45;&gt;e_dense1 -->
<g id="edge3" class="edge">
<title>x_embed&#45;&gt;e_dense1</title>
<path fill="none" stroke="#6b7280" stroke-width="1.3" d="M126.14,-35.54C137.97,-34.17 150.79,-33.09 163.19,-32.39"/>
<polygon fill="#6b7280" stroke="#6b7280" stroke-width="1.3" points="163.29,-34.84 170.16,-32.04 163.04,-29.94 163.29,-34.84"/>
</g>
<!-- x_embed&#45;&gt;e_dense1 -->
<g id="edge11" class="edge">
<title>x_embed&#45;&gt;e_dense1</title>
<path fill="none" stroke="#6b7280" stroke-width="1.3" d="M126.14,-53.26C138.09,-52.87 151.04,-52.06 163.55,-50.91"/>
<polygon fill="#6b7280" stroke="#6b7280" stroke-width="1.3" points="163.44,-53.39 170.16,-50.26 162.96,-48.51 163.44,-53.39"/>
<text text-anchor="middle" x="161.9" y="-53.3" font-family="Helvetica,sans-Serif" font-size="9.00">768×1</text>
</g>
<!-- m_dense2 -->
<g id="node4" class="node">
<title>m_dense2</title>
<path fill="white" stroke="#d1d5db" d="M373.06,-149.38C373.06,-149.38 333.54,-149.38 333.54,-149.38 327.54,-149.38 321.54,-143.38 321.54,-137.38 321.54,-137.38 321.54,-118.62 321.54,-118.62 321.54,-112.62 327.54,-106.62 333.54,-106.62 333.54,-106.62 373.06,-106.62 373.06,-106.62 379.06,-106.62 385.06,-112.62 385.06,-118.62 385.06,-118.62 385.06,-137.38 385.06,-137.38 385.06,-143.38 379.06,-149.38 373.06,-149.38"/>
<text text-anchor="start" x="329.3" y="-132.18" font-family="Helvetica,sans-Serif" font-weight="bold" font-size="11.00" fill="#111827">Dense 64</text>
<text text-anchor="start" x="342.8" y="-117.08" font-family="monospace" font-size="9.00" fill="#374151">ReLU</text>
</g>
<!-- m_dense1&#45;&gt;m_dense2 -->
<g id="edge2" class="edge">
<title>m_dense1&#45;&gt;m_dense2</title>
<path fill="none" stroke="#6b7280" stroke-width="1.3" d="M282.82,-128C292.76,-128 302.97,-128 312.39,-128"/>
<polygon fill="#6b7280" stroke="#6b7280" stroke-width="1.3" points="312.19,-130.45 319.19,-128 312.19,-125.55 312.19,-130.45"/>
</g>
<!-- concat -->
<g id="node7" class="node">
<title>concat</title>
<ellipse fill="#fff7ed" stroke="#d1d5db" cx="481.7" cy="-80" rx="57.64" ry="29.18"/>
<text text-anchor="start" x="448.7" y="-83.42" font-family="Helvetica,sans-Serif" font-weight="bold" font-size="11.00" fill="#111827">Concatenate</text>
<text text-anchor="start" x="466.7" y="-68.33" font-family="Helvetica,sans-Serif" font-size="9.00" fill="#374151">axis=&#45;1</text>
</g>
<!-- m_dense2&#45;&gt;concat -->
<g id="edge5" class="edge">
<title>m_dense2&#45;&gt;concat</title>
<path fill="none" stroke="#6b7280" stroke-width="1.3" d="M385.55,-116.13C398.01,-111.4 412.73,-105.81 426.82,-100.46"/>
<polygon fill="#6b7280" stroke="#6b7280" stroke-width="1.3" points="427.5,-102.82 433.18,-98.05 425.77,-98.24 427.5,-102.82"/>
</g>
<!-- e_dense2 -->
<g id="node6" class="node">
<title>e_dense2</title>
<path fill="white" stroke="#d1d5db" d="M376.06,-58.38C376.06,-58.38 330.54,-58.38 330.54,-58.38 324.54,-58.38 318.54,-52.38 318.54,-46.38 318.54,-46.38 318.54,-27.62 318.54,-27.62 318.54,-21.62 324.54,-15.62 330.54,-15.62 330.54,-15.62 376.06,-15.62 376.06,-15.62 382.06,-15.62 388.06,-21.62 388.06,-27.62 388.06,-27.62 388.06,-46.38 388.06,-46.38 388.06,-52.38 382.06,-58.38 376.06,-58.38"/>
<text text-anchor="start" x="326.3" y="-41.17" font-family="Helvetica,sans-Serif" font-weight="bold" font-size="11.00" fill="#111827">Dense 128</text>
<text text-anchor="start" x="342.8" y="-26.07" font-family="monospace" font-size="9.00" fill="#374151">ReLU</text>
</g>
<!-- e_dense1&#45;&gt;e_dense2 -->
<g id="edge4" class="edge">
<title>e_dense1&#45;&gt;e_dense2</title>
<path fill="none" stroke="#6b7280" stroke-width="1.3" d="M282.82,-37C291.78,-37 300.97,-37 309.6,-37"/>
<polygon fill="#6b7280" stroke="#6b7280" stroke-width="1.3" points="309.39,-39.45 316.39,-37 309.39,-34.55 309.39,-39.45"/>
</g>
<!-- e_dense2&#45;&gt;concat -->
<g id="edge6" class="edge">
<title>e_dense2&#45;&gt;concat</title>
<path fill="none" stroke="#6b7280" stroke-width="1.3" d="M388.51,-48.64C399.67,-52.44 412.39,-56.76 424.72,-60.96"/>
<polygon fill="#6b7280" stroke="#6b7280" stroke-width="1.3" points="423.9,-63.27 431.32,-63.2 425.48,-58.63 423.9,-63.27"/>
</g>
<!-- h_dense1 -->
<g id="node8" class="node">
<title>h_dense1</title>
<path fill="white" stroke="#d1d5db" d="M736.37,-101.38C736.37,-101.38 587.35,-101.38 587.35,-101.38 581.35,-101.38 575.35,-95.38 575.35,-89.38 575.35,-89.38 575.35,-70.61 575.35,-70.61 575.35,-64.62 581.35,-58.62 587.35,-58.62 587.35,-58.62 736.37,-58.62 736.37,-58.62 742.37,-58.62 748.37,-64.62 748.37,-70.62 748.37,-70.62 748.37,-89.38 748.37,-89.38 748.37,-95.38 742.37,-101.38 736.37,-101.38"/>
<text text-anchor="start" x="634.86" y="-84.17" font-family="Helvetica,sans-Serif" font-weight="bold" font-size="11.00" fill="#111827">Dense 128</text>
<text text-anchor="start" x="583.11" y="-69.08" font-family="monospace" font-size="9.00" fill="#374151">BatchNorm + ReLU + Dropout 0.3</text>
</g>
<!-- concat&#45;&gt;h_dense1 -->
<g id="edge7" class="edge">
<title>concat&#45;&gt;h_dense1</title>
<path fill="none" stroke="#6b7280" stroke-width="1.3" d="M537.12,-71.29C546.38,-70.92 556.23,-70.7 566.18,-70.64"/>
<polygon fill="#6b7280" stroke="#6b7280" stroke-width="1.3" points="565.97,-73.09 572.96,-70.63 565.96,-68.19 565.97,-73.09"/>
</g>
<!-- concat&#45;&gt;h_dense1 -->
<g id="edge12" class="edge">
<title>concat&#45;&gt;h_dense1</title>
<path fill="none" stroke="#6b7280" stroke-width="1.3" d="M537.12,-88.71C546.38,-89.08 556.23,-89.3 566.18,-89.36"/>
<polygon fill="#6b7280" stroke="#6b7280" stroke-width="1.3" points="565.96,-91.81 572.96,-89.37 565.97,-86.91 565.96,-91.81"/>
<text text-anchor="middle" x="579.98" y="-90.44" font-family="Helvetica,sans-Serif" font-size="9.00">(64+128)×1</text>
</g>
<!-- h_out -->
<g id="node9" class="node">
<title>h_out</title>
<path fill="white" stroke="#d1d5db" d="M898.14,-101.38C898.14,-101.38 796.37,-101.38 796.37,-101.38 790.37,-101.38 784.37,-95.38 784.37,-89.38 784.37,-89.38 784.37,-70.61 784.37,-70.61 784.37,-64.62 790.37,-58.62 796.37,-58.62 796.37,-58.62 898.14,-58.62 898.14,-58.62 904.14,-58.62 910.14,-64.62 910.14,-70.62 910.14,-70.62 910.14,-89.38 910.14,-89.38 910.14,-95.38 904.14,-101.38 898.14,-101.38"/>
<text text-anchor="start" x="826.25" y="-84.17" font-family="Helvetica,sans-Serif" font-weight="bold" font-size="11.00" fill="#111827">Dense 3</text>
<text text-anchor="start" x="792.13" y="-69.08" font-family="monospace" font-size="9.00" fill="#374151">Sigmoid (one&#45;vs&#45;rest)</text>
</g>
<!-- h_dense1&#45;&gt;h_out -->
<g id="edge8" class="edge">
<title>h_dense1&#45;&gt;h_out</title>
<path fill="none" stroke="#6b7280" stroke-width="1.3" d="M748.65,-80C757.5,-80 766.43,-80 775.11,-80"/>
<polygon fill="#6b7280" stroke="#6b7280" stroke-width="1.3" points="775.07,-82.45 782.07,-80 775.07,-77.55 775.07,-82.45"/>
</g>
<!-- y -->
<g id="node10" class="node">
<title>y</title>
<path fill="white" stroke="#d1d5db" d="M1095.91,-100.63C1095.91,-100.63 958.14,-100.63 958.14,-100.63 952.14,-100.63 946.14,-94.63 946.14,-88.63 946.14,-88.63 946.14,-71.37 946.14,-71.37 946.14,-65.37 952.14,-59.37 958.14,-59.37 958.14,-59.37 1095.91,-59.37 1095.91,-59.37 1101.91,-59.37 1107.91,-65.37 1107.91,-71.37 1107.91,-71.37 1107.91,-88.63 1107.91,-88.63 1107.91,-94.63 1101.91,-100.63 1095.91,-100.63"/>
<text text-anchor="start" x="1006.02" y="-83.42" font-family="Helvetica,sans-Serif" font-weight="bold" font-size="11.00" fill="#111827">Outputs</text>
<text text-anchor="start" x="953.9" y="-68.33" font-family="Helvetica,sans-Serif" font-size="9.00" fill="#374151">P(Mega), P(CRUDy), P(Ambiguous)</text>
</g>
<!-- h_out&#45;&gt;y -->
<g id="edge9" class="edge">
<title>h_out&#45;&gt;y</title>
<path fill="none" stroke="#6b7280" stroke-width="1.3" d="M910.43,-71.01C918.99,-70.76 927.91,-70.63 936.84,-70.63"/>
<polygon fill="#6b7280" stroke="#6b7280" stroke-width="1.3" points="936.78,-73.07 943.79,-70.66 936.8,-68.17 936.78,-73.07"/>
</g>
<!-- h_out&#45;&gt;y -->
<g id="edge13" class="edge">
<title>h_out&#45;&gt;y</title>
<path fill="none" stroke="#6b7280" stroke-width="1.3" d="M910.43,-88.99C918.99,-89.24 927.91,-89.37 936.84,-89.37"/>
<polygon fill="#6b7280" stroke="#6b7280" stroke-width="1.3" points="936.8,-91.83 943.79,-89.34 936.78,-86.93 936.8,-91.83"/>
<text text-anchor="middle" x="920.19" y="-80.78" font-family="Helvetica,sans-Serif" font-size="9.00">3×1</text>
</g>
</g>
</svg>
