<?xml version="1.0" encoding="UTF-8" standalone="no"?>
<!DOCTYPE svg PUBLIC "-//W3C//DTD SVG 1.1//EN"
 "http://www.w3.org/Graphics/SVG/1.1/DTD/svg11.dtd">
<!-- Generated by graphviz version 12.2.0 (20241103.1931)
 -->
<!-- Pages: 1 -->
<svg width="1587pt" height="404pt"
 viewBox="0.00 0.00 1586.73 403.80" xmlns="http://www.w3.org/2000/svg" xmlns:xlink="http://www.w3.org/1999/xlink">
<g id="graph0" class="graph" transform="scale(1 1) rotate(0) translate(14.4 389.4)">
<polygon fill="white" stroke="none" points="-14.4,14.4 -14.4,-389.4 1572.33,-389.4 1572.33,14.4 -14.4,14.4"/>
<g id="clust1" class="cluster">
<title>cluster_prep</title>
<path fill="white" stroke="#059669" stroke-width="1.8" d="M20,-195C20,-195 617.83,-195 617.83,-195 623.83,-195 629.83,-201 629.83,-207 629.83,-207 629.83,-265 629.83,-265 629.83,-271 623.83,-277 617.83,-277 617.83,-277 20,-277 20,-277 14,-277 8,-271 8,-265 8,-265 8,-207 8,-207 8,-201 14,-195 20,-195"/>
<text text-anchor="middle" x="318.91" y="-259.7" font-family="Times,serif" font-size="14.00">Data &amp; Preprocessing</text>
</g>
<g id="clust2" class="cluster">
<title>cluster_feat</title>
<path fill="white" stroke="#2563eb" stroke-width="1.8" d="M662.83,-157C662.83,-157 797.85,-157 797.85,-157 803.85,-157 809.85,-163 809.85,-169 809.85,-169 809.85,-296 809.85,-296 809.85,-302 803.85,-308 797.85,-308 797.85,-308 662.83,-308 662.83,-308 656.83,-308 650.83,-302 650.83,-296 650.83,-296 650.83,-169 650.83,-169 650.83,-163 656.83,-157 662.83,-157"/>
<text text-anchor="middle" x="730.34" y="-290.7" font-family="Times,serif" font-size="14.00">Feature Extraction</text>
</g>
<g id="clust3" class="cluster">
<title>cluster_ds</title>
<path fill="white" stroke="#7c3aed" stroke-width="1.8" d="M855.6,-157C855.6,-157 1106.89,-157 1106.89,-157 1112.89,-157 1118.89,-163 1118.89,-169 1118.89,-169 1118.89,-227 1118.89,-227 1118.89,-233 1112.89,-239 1106.89,-239 1106.89,-239 855.6,-239 855.6,-239 849.6,-239 843.6,-233 843.6,-227 843.6,-227 843.6,-169 843.6,-169 843.6,-163 849.6,-157 855.6,-157"/>
<text text-anchor="middle" x="981.24" y="-221.7" font-family="Times,serif" font-size="14.00">Dataset</text>
</g>
<g id="clust4" class="cluster">
<title>cluster_model</title>
<path fill="white" stroke="#059669" stroke-width="1.8" d="M1199.64,-8C1199.64,-8 1537.93,-8 1537.93,-8 1543.93,-8 1549.93,-14 1549.93,-20 1549.93,-20 1549.93,-144 1549.93,-144 1549.93,-150 1543.93,-156 1537.93,-156 1537.93,-156 1199.64,-156 1199.64,-156 1193.64,-156 1187.64,-150 1187.64,-144 1187.64,-144 1187.64,-20 1187.64,-20 1187.64,-14 1193.64,-8 1199.64,-8"/>
<text text-anchor="middle" x="1368.78" y="-138.7" font-family="Times,serif" font-size="14.00">Modeling</text>
</g>
<g id="clust5" class="cluster">
<title>cluster_ci</title>
<path fill="white" stroke="#2563eb" stroke-width="1.8" d="M677.08,-67C677.08,-67 1115.14,-67 1115.14,-67 1121.14,-67 1127.14,-73 1127.14,-79 1127.14,-79 1127.14,-137 1127.14,-137 1127.14,-143 1121.14,-149 1115.14,-149 1115.14,-149 677.08,-149 677.08,-149 671.08,-149 665.08,-143 665.08,-137 665.08,-137 665.08,-79 665.08,-79 665.08,-73 671.08,-67 677.08,-67"/>
<text text-anchor="middle" x="896.11" y="-131.7" font-family="Times,serif" font-size="14.00">DevOps Integration</text>
</g>
<g id="clust6" class="cluster">
<title>cluster_legend</title>
<polygon fill="white" stroke="#d1d5db" stroke-width="1.2" stroke-dasharray="5,2" points="26.75,-285 26.75,-367 427.31,-367 427.31,-285 26.75,-285"/>
<text text-anchor="middle" x="227.03" y="-349.7" font-family="Times,serif" font-size="14.00">Legend</text>
</g>
<!-- repo -->
<g id="node1" class="node">
<title>repo</title>
<path fill="white" stroke="#d1d5db" d="M127.52,-244.63C127.52,-244.63 28,-244.63 28,-244.63 22,-244.63 16,-238.63 16,-232.63 16,-232.63 16,-215.37 16,-215.37 16,-209.37 22,-203.37 28,-203.37 28,-203.37 127.52,-203.37 127.52,-203.37 133.52,-203.37 139.52,-209.37 139.52,-215.37 139.52,-215.37 139.52,-232.63 139.52,-232.63 139.52,-238.63 133.52,-244.63 127.52,-244.63"/>
<text text-anchor="start" x="31.63" y="-227.43" font-family="Helvetica,sans-Serif" font-weight="bold" font-size="11.00" fill="#111827">Train&#45;Ticket Repo</text>
<text text-anchor="start" x="23.76" y="-212.32" font-family="Helvetica,sans-Serif" font-size="9.00" fill="#374151">Git submodules &amp; services</text>
</g>
<!-- extract -->
<g id="node2" class="node">
<title>extract</title>
<path fill="white" stroke="#d1d5db" d="M269.29,-244.63C269.29,-244.63 188.52,-244.63 188.52,-244.63 182.52,-244.63 176.52,-238.63 176.52,-232.63 176.52,-232.63 176.52,-215.37 176.52,-215.37 176.52,-209.37 182.52,-203.37 188.52,-203.37 188.52,-203.37 269.29,-203.37 269.29,-203.37 275.29,-203.37 281.29,-209.37 281.29,-215.37 281.29,-215.37 281.29,-232.63 281.29,-232.63 281.29,-238.63 275.29,-244.63 269.29,-244.63"/>
<text text-anchor="start" x="188.4" y="-227.43" font-family="Helvetica,sans-Serif" font-weight="bold" font-size="11.00" fill="#111827">Data Extraction</text>
<text text-anchor="start" x="184.28" y="-212.32" font-family="Helvetica,sans-Serif" font-size="9.00" fill="#374151">Java files, build graph</text>
</g>
<!-- repo&#45;&gt;extract -->
<g id="edge1" class="edge">
<title>repo&#45;&gt;extract</title>
<path fill="none" stroke="#6b7280" stroke-width="1.3" d="M139.85,-224C148.9,-224 158.23,-224 167.27,-224"/>
<polygon fill="#6b7280" stroke="#6b7280" stroke-width="1.3" points="167.23,-226.45 174.23,-224 167.23,-221.55 167.23,-226.45"/>
</g>
<!-- pre -->
<g id="node3" class="node">
<title>pre</title>
<path fill="white" stroke="#d1d5db" d="M442.56,-244.63C442.56,-244.63 330.29,-244.63 330.29,-244.63 324.29,-244.63 318.29,-238.63 318.29,-232.63 318.29,-232.63 318.29,-215.37 318.29,-215.37 318.29,-209.37 324.29,-203.37 330.29,-203.37 330.29,-203.37 442.56,-203.37 442.56,-203.37 448.56,-203.37 454.56,-209.37 454.56,-215.37 454.56,-215.37 454.56,-232.63 454.56,-232.63 454.56,-238.63 448.56,-244.63 442.56,-244.63"/>
<text text-anchor="start" x="348.17" y="-227.43" font-family="Helvetica,sans-Serif" font-weight="bold" font-size="11.00" fill="#111827">Preprocessing</text>
<text text-anchor="start" x="326.05" y="-212.32" font-family="Helvetica,sans-Serif" font-size="9.00" fill="#374151">strip comments, normalize ids</text>
</g>
<!-- extract&#45;&gt;pre -->
<g id="edge2" class="edge">
<title>extract&#45;&gt;pre</title>
<path fill="none" stroke="#6b7280" stroke-width="1.3" d="M281.69,-224C290.46,-224 299.73,-224 308.98,-224"/>
<polygon fill="#6b7280" stroke="#6b7280" stroke-width="1.3" points="308.85,-226.45 315.85,-224 308.85,-221.55 308.85,-226.45"/>
</g>
<!-- label -->
<g id="node4" class="node">
<title>label</title>
<path fill="white" stroke="#d1d5db" d="M609.83,-244.63C609.83,-244.63 503.56,-244.63 503.56,-244.63 497.56,-244.63 491.56,-238.63 491.56,-232.63 491.56,-232.63 491.56,-215.37 491.56,-215.37 491.56,-209.37 497.56,-203.37 503.56,-203.37 503.56,-203.37 609.83,-203.37 609.83,-203.37 615.83,-203.37 621.83,-209.37 621.83,-215.37 621.83,-215.37 621.83,-232.63 621.83,-232.63 621.83,-238.63 615.83,-244.63 609.83,-244.63"/>
<text text-anchor="start" x="507.57" y="-227.43" font-family="Helvetica,sans-Serif" font-weight="bold" font-size="11.00" fill="#111827">Heuristic Labelling</text>
<text text-anchor="start" x="499.32" y="-212.32" font-family="Helvetica,sans-Serif" font-size="9.00" fill="#374151">Mega / CRUDy / Ambiguous</text>
</g>
<!-- pre&#45;&gt;label -->
<g id="edge3" class="edge">
<title>pre&#45;&gt;label</title>
<path fill="none" stroke="#6b7280" stroke-width="1.3" d="M454.9,-224C463.97,-224 473.32,-224 482.49,-224"/>
<polygon fill="#6b7280" stroke="#6b7280" stroke-width="1.3" points="482.25,-226.45 489.25,-224 482.25,-221.55 482.25,-226.45"/>
</g>
<!-- ck -->
<g id="node5" class="node">
<title>ck</title>
<path fill="#eff6ff" stroke="#d1d5db" d="M775.97,-275.38C775.97,-275.38 684.7,-275.38 684.7,-275.38 678.7,-275.38 672.7,-269.38 672.7,-263.38 672.7,-263.38 672.7,-244.62 672.7,-244.62 672.7,-238.62 678.7,-232.62 684.7,-232.62 684.7,-232.62 775.97,-232.62 775.97,-232.62 781.97,-232.62 787.97,-238.62 787.97,-244.62 787.97,-244.62 787.97,-263.38 787.97,-263.38 787.97,-269.38 781.97,-275.38 775.97,-275.38"/>
<text text-anchor="start" x="701.46" y="-258.18" font-family="Helvetica,sans-Serif" font-weight="bold" font-size="11.00" fill="#111827">CK Metrics</text>
<text text-anchor="start" x="680.46" y="-243.07" font-family="monospace" font-size="9.00" fill="#374151">LOC, CBO, RFC, WMC…</text>
</g>
<!-- label&#45;&gt;ck -->
<g id="edge4" class="edge">
<title>label&#45;&gt;ck</title>
<path fill="none" stroke="#6b7280" stroke-width="1.3" d="M622.1,-235.26C635.8,-237.65 650.29,-240.18 664.03,-242.59"/>
<polygon fill="#6b7280" stroke="#6b7280" stroke-width="1.3" points="663.22,-244.93 670.54,-243.72 664.07,-240.1 663.22,-244.93"/>
</g>
<!-- codebert -->
<g id="node6" class="node">
<title>codebert</title>
<path fill="#eef2ff" stroke="#d1d5db" d="M789.85,-207.38C789.85,-207.38 670.83,-207.38 670.83,-207.38 664.83,-207.38 658.83,-201.38 658.83,-195.38 658.83,-195.38 658.83,-176.62 658.83,-176.62 658.83,-170.62 664.83,-164.62 670.83,-164.62 670.83,-164.62 789.85,-164.62 789.85,-164.62 795.85,-164.62 801.85,-170.62 801.85,-176.62 801.85,-176.62 801.85,-195.38 801.85,-195.38 801.85,-201.38 795.85,-207.38 789.85,-207.38"/>
<text text-anchor="start" x="666.59" y="-190.18" font-family="Helvetica,sans-Serif" font-weight="bold" font-size="11.00" fill="#111827">CodeBERT Embeddings</text>
<text text-anchor="start" x="701.46" y="-175.07" font-family="monospace" font-size="9.00" fill="#374151">CLS (768&#45;d)</text>
</g>
<!-- label&#45;&gt;codebert -->
<g id="edge5" class="edge">
<title>label&#45;&gt;codebert</title>
<path fill="none" stroke="#6b7280" stroke-width="1.3" d="M622.1,-209.74C631.2,-207.73 640.65,-205.64 649.99,-203.57"/>
<polygon fill="#6b7280" stroke="#6b7280" stroke-width="1.3" points="650.31,-206.01 656.61,-202.1 649.25,-201.22 650.31,-206.01"/>
</g>
<!-- merge -->
<g id="node7" class="node">
<title>merge</title>
<path fill="white" stroke="#d1d5db" d="M929.37,-206.63C929.37,-206.63 863.6,-206.63 863.6,-206.63 857.6,-206.63 851.6,-200.63 851.6,-194.63 851.6,-194.63 851.6,-177.37 851.6,-177.37 851.6,-171.37 857.6,-165.37 863.6,-165.37 863.6,-165.37 929.37,-165.37 929.37,-165.37 935.37,-165.37 941.37,-171.37 941.37,-177.37 941.37,-177.37 941.37,-194.63 941.37,-194.63 941.37,-200.63 935.37,-206.63 929.37,-206.63"/>
<text text-anchor="start" x="859.73" y="-189.43" font-family="Helvetica,sans-Serif" font-weight="bold" font-size="11.00" fill="#111827">Merge &amp; Align</text>
<text text-anchor="start" x="859.36" y="-174.32" font-family="Helvetica,sans-Serif" font-size="9.00" fill="#374151">by class/service id</text>
</g>
<!-- ck&#45;&gt;merge -->
<g id="edge6" class="edge">
<title>ck&#45;&gt;merge</title>
<path fill="none" stroke="#6b7280" stroke-width="1.3" d="M783.73,-232.3C802.69,-224.44 824.09,-215.58 843.06,-207.72"/>
<polygon fill="#6b7280" stroke="#6b7280" stroke-width="1.3" points="843.95,-210 849.48,-205.06 842.08,-205.47 843.95,-210"/>
</g>
<!-- codebert&#45;&gt;merge -->
<g id="edge7" class="edge">
<title>codebert&#45;&gt;merge</title>
<path fill="none" stroke="#6b7280" stroke-width="1.3" d="M801.9,-186C815.6,-186 829.73,-186 842.74,-186"/>
<polygon fill="#6b7280" stroke="#6b7280" stroke-width="1.3" points="842.57,-188.45 849.57,-186 842.57,-183.55 842.57,-188.45"/>
</g>
<!-- split -->
<g id="node8" class="node">
<title>split</title>
<path fill="white" stroke="#d1d5db" d="M1098.89,-206.63C1098.89,-206.63 1011.37,-206.63 1011.37,-206.63 1005.37,-206.63 999.37,-200.63 999.37,-194.63 999.37,-194.63 999.37,-177.37 999.37,-177.37 999.37,-171.37 1005.37,-165.37 1011.37,-165.37 1011.37,-165.37 1098.89,-165.37 1098.89,-165.37 1104.89,-165.37 1110.89,-171.37 1110.89,-177.37 1110.89,-177.37 1110.89,-194.63 1110.89,-194.63 1110.89,-200.63 1104.89,-206.63 1098.89,-206.63"/>
<text text-anchor="start" x="1017.63" y="-189.43" font-family="Helvetica,sans-Serif" font-weight="bold" font-size="11.00" fill="#111827">Stratified Split</text>
<text text-anchor="start" x="1007.13" y="-174.32" font-family="Helvetica,sans-Serif" font-size="9.00" fill="#374151">train / val / test 70/15/15</text>
</g>
<!-- merge&#45;&gt;split -->
<g id="edge8" class="edge">
<title>merge&#45;&gt;split</title>
<path fill="none" stroke="#6b7280" stroke-width="1.3" d="M941.54,-186C956.58,-186 973.72,-186 990.01,-186"/>
<polygon fill="#6b7280" stroke="#6b7280" stroke-width="1.3" points="989.99,-188.45 996.99,-186 989.99,-183.55 989.99,-188.45"/>
</g>
<!-- train -->
<g id="node9" class="node">
<title>train</title>
<path fill="white" stroke="#d1d5db" d="M1347.66,-120.38C1347.66,-120.38 1207.64,-120.38 1207.64,-120.38 1201.64,-120.38 1195.64,-114.38 1195.64,-108.38 1195.64,-108.38 1195.64,-89.62 1195.64,-89.62 1195.64,-83.62 1201.64,-77.62 1207.64,-77.62 1207.64,-77.62 1347.66,-77.62 1347.66,-77.62 1353.66,-77.62 1359.66,-83.62 1359.66,-89.62 1359.66,-89.62 1359.66,-108.38 1359.66,-108.38 1359.66,-114.38 1353.66,-120.38 1347.66,-120.38"/>
<text text-anchor="start" x="1240.52" y="-103.17" font-family="Helvetica,sans-Serif" font-weight="bold" font-size="11.00" fill="#111827">Dual&#45;Input NN</text>
<text text-anchor="start" x="1203.4" y="-88.08" font-family="Helvetica,sans-Serif" font-size="9.00" fill="#374151">metrics MLP + embed MLP ➜ concat</text>
</g>
<!-- split&#45;&gt;train -->
<g id="edge9" class="edge">
<title>split&#45;&gt;train</title>
<path fill="none" stroke="#6b7280" stroke-width="1.3" d="M1109.51,-164.94C1140.77,-152.61 1180.42,-136.96 1213.26,-124.01"/>
<polygon fill="#6b7280" stroke="#6b7280" stroke-width="1.3" points="1214.01,-126.35 1219.63,-121.5 1212.22,-121.79 1214.01,-126.35"/>
</g>
<!-- eval -->
<g id="node10" class="node">
<title>eval</title>
<path fill="white" stroke="#d1d5db" d="M1517.18,-123.63C1517.18,-123.63 1421.41,-123.63 1421.41,-123.63 1415.41,-123.63 1409.41,-117.63 1409.41,-111.63 1409.41,-111.63 1409.41,-94.37 1409.41,-94.37 1409.41,-88.37 1415.41,-82.37 1421.41,-82.37 1421.41,-82.37 1517.18,-82.37 1517.18,-82.37 1523.18,-82.37 1529.18,-88.37 1529.18,-94.37 1529.18,-94.37 1529.18,-111.63 1529.18,-111.63 1529.18,-117.63 1523.18,-123.63 1517.18,-123.63"/>
<text text-anchor="start" x="1441.54" y="-106.42" font-family="Helvetica,sans-Serif" font-weight="bold" font-size="11.00" fill="#111827">Evaluation</text>
<text text-anchor="start" x="1417.17" y="-91.33" font-family="Helvetica,sans-Serif" font-size="9.00" fill="#374151">acc / P / R / F1, PR curves</text>
</g>
<!-- train&#45;&gt;eval -->
<g id="edge10" class="edge">
<title>train&#45;&gt;eval</title>
<path fill="none" stroke="#6b7280" stroke-width="1.3" d="M1359.9,-100.71C1373.3,-101 1387.06,-101.29 1400.1,-101.56"/>
<polygon fill="#6b7280" stroke="#6b7280" stroke-width="1.3" points="1399.97,-104.01 1407.02,-101.71 1400.08,-99.11 1399.97,-104.01"/>
</g>
<!-- infer -->
<g id="node11" class="node">
<title>infer</title>
<path fill="white" stroke="#d1d5db" d="M1529.93,-57.63C1529.93,-57.63 1408.66,-57.63 1408.66,-57.63 1402.66,-57.63 1396.66,-51.63 1396.66,-45.63 1396.66,-45.63 1396.66,-28.37 1396.66,-28.37 1396.66,-22.37 1402.66,-16.37 1408.66,-16.37 1408.66,-16.37 1529.93,-16.37 1529.93,-16.37 1535.93,-16.37 1541.93,-22.37 1541.93,-28.37 1541.93,-28.37 1541.93,-45.63 1541.93,-45.63 1541.93,-51.63 1535.93,-57.63 1529.93,-57.63"/>
<text text-anchor="start" x="1444.92" y="-40.42" font-family="Helvetica,sans-Serif" font-weight="bold" font-size="11.00" fill="#111827">Inference</text>
<text text-anchor="start" x="1404.42" y="-25.32" font-family="Helvetica,sans-Serif" font-size="9.00" fill="#374151">per&#45;service predictions + scores</text>
</g>
<!-- train&#45;&gt;infer -->
<g id="edge11" class="edge">
<title>train&#45;&gt;infer</title>
<path fill="none" stroke="#6b7280" stroke-width="1.3" d="M1345.51,-77.14C1361.68,-71.86 1379.03,-66.18 1395.45,-60.81"/>
<polygon fill="#6b7280" stroke="#6b7280" stroke-width="1.3" points="1396.18,-63.15 1402.08,-58.65 1394.66,-58.49 1396.18,-63.15"/>
</g>
<!-- gha -->
<g id="node12" class="node">
<title>gha</title>
<path fill="white" stroke="#d1d5db" d="M775.6,-116.63C775.6,-116.63 685.08,-116.63 685.08,-116.63 679.08,-116.63 673.08,-110.63 673.08,-104.63 673.08,-104.63 673.08,-87.37 673.08,-87.37 673.08,-81.37 679.08,-75.37 685.08,-75.37 685.08,-75.37 775.6,-75.37 775.6,-75.37 781.6,-75.37 787.6,-81.37 787.6,-87.37 787.6,-87.37 787.6,-104.63 787.6,-104.63 787.6,-110.63 781.6,-116.63 775.6,-116.63"/>
<text text-anchor="start" x="702.21" y="-99.42" font-family="Helvetica,sans-Serif" font-weight="bold" font-size="11.00" fill="#111827">CI Pipeline</text>
<text text-anchor="start" x="680.84" y="-84.33" font-family="Helvetica,sans-Serif" font-size="9.00" fill="#374151">GitHub Actions workflow</text>
</g>
<!-- infer&#45;&gt;gha -->
<g id="edge12" class="edge">
<title>infer&#45;&gt;gha</title>
<path fill="none" stroke="#6b7280" stroke-width="1.3" d="M1396.25,-37C1360.83,-37 1317.5,-37 1278.65,-37 895.48,-37 895.48,-37 895.48,-37 852.91,-37 807.6,-54.79 775.39,-70.84"/>
<polygon fill="#6b7280" stroke="#6b7280" stroke-width="1.3" points="774.37,-68.61 769.24,-73.97 776.59,-72.97 774.37,-68.61"/>
</g>
<!-- annot -->
<g id="node13" class="node">
<title>annot</title>
<path fill="white" stroke="#d1d5db" d="M942.12,-116.63C942.12,-116.63 850.85,-116.63 850.85,-116.63 844.85,-116.63 838.85,-110.63 838.85,-104.63 838.85,-104.63 838.85,-87.37 838.85,-87.37 838.85,-81.37 844.85,-75.37 850.85,-75.37 850.85,-75.37 942.12,-75.37 942.12,-75.37 948.12,-75.37 954.12,-81.37 954.12,-87.37 954.12,-87.37 954.12,-104.63 954.12,-104.63 954.12,-110.63 948.12,-116.63 942.12,-116.63"/>
<text text-anchor="start" x="851.11" y="-99.42" font-family="Helvetica,sans-Serif" font-weight="bold" font-size="11.00" fill="#111827">Human Feedback</text>
<text text-anchor="start" x="846.61" y="-84.33" font-family="Helvetica,sans-Serif" font-size="9.00" fill="#374151">dev review &amp; corrections</text>
</g>
<!-- gha&#45;&gt;annot -->
<g id="edge13" class="edge">
<title>gha&#45;&gt;annot</title>
<path fill="none" stroke="#6b7280" stroke-width="1.3" d="M787.83,-96C801.42,-96 816.06,-96 830.02,-96"/>
<polygon fill="#6b7280" stroke="#6b7280" stroke-width="1.3" points="829.65,-98.45 836.65,-96 829.65,-93.55 829.65,-98.45"/>
</g>
<!-- retrain -->
<g id="node14" class="node">
<title>retrain</title>
<path fill="white" stroke="#d1d5db" d="M1107.14,-116.63C1107.14,-116.63 1003.12,-116.63 1003.12,-116.63 997.12,-116.63 991.12,-110.63 991.12,-104.63 991.12,-104.63 991.12,-87.37 991.12,-87.37 991.12,-81.37 997.12,-75.37 1003.12,-75.37 1003.12,-75.37 1107.14,-75.37 1107.14,-75.37 1113.14,-75.37 1119.14,-81.37 1119.14,-87.37 1119.14,-87.37 1119.14,-104.63 1119.14,-104.63 1119.14,-110.63 1113.14,-116.63 1107.14,-116.63"/>
<text text-anchor="start" x="1010.5" y="-99.42" font-family="Helvetica,sans-Serif" font-weight="bold" font-size="11.00" fill="#111827">Model Retraining</text>
<text text-anchor="start" x="998.88" y="-84.33" font-family="Helvetica,sans-Serif" font-size="9.00" fill="#374151">periodic or threshold&#45;based</text>
</g>
<!-- annot&#45;&gt;retrain -->
<g id="edge14" class="edge">
<title>annot&#45;&gt;retrain</title>
<path fill="none" stroke="#dc2626" stroke-width="1.6" stroke-dasharray="5,2" d="M954.48,-96C963.25,-96 972.4,-96 981.45,-96"/>
<polygon fill="#dc2626" stroke="#dc2626" stroke-width="1.6" points="981.4,-98.45 988.4,-96 981.4,-93.55 981.4,-98.45"/>
</g>
<!-- retrain&#45;&gt;train -->
<g id="edge15" class="edge">
<title>retrain&#45;&gt;train</title>
<path fill="none" stroke="#dc2626" stroke-width="1.6" stroke-dasharray="5,2" d="M1119.62,-96.86C1140.42,-97.15 1163.94,-97.47 1186.34,-97.77"/>
<polygon fill="#dc2626" stroke="#dc2626" stroke-width="1.6" points="1186.06,-100.22 1193.09,-97.86 1186.13,-95.32 1186.06,-100.22"/>
<text text-anchor="middle" x="1157.39" y="-99.54" font-family="Times,serif" font-size="9.00" fill="#dc2626">closed loop</text>
</g>
<!-- l1 -->
<g id="node15" class="node">
<title>l1</title>
<path fill="white" stroke="#d1d5db" d="M108.77,-334.63C108.77,-334.63 46.75,-334.63 46.75,-334.63 40.75,-334.63 34.75,-328.63 34.75,-322.63 34.75,-322.63 34.75,-305.37 34.75,-305.37 34.75,-299.37 40.75,-293.37 46.75,-293.37 46.75,-293.37 108.77,-293.37 108.77,-293.37 114.77,-293.37 120.77,-299.37 120.77,-305.37 120.77,-305.37 120.77,-322.63 120.77,-322.63 120.77,-328.63 114.77,-334.63 108.77,-334.63"/>
<text text-anchor="start" x="42.51" y="-317.43" font-family="Helvetica,sans-Serif" font-weight="bold" font-size="11.00" fill="#111827">Rounded box</text>
<text text-anchor="start" x="45.51" y="-302.32" font-family="Helvetica,sans-Serif" font-size="9.00" fill="#374151">processing step</text>
</g>
<!-- l2 -->
<g id="node16" class="node">
<title>l2</title>
<path fill="white" stroke="#d1d5db" d="M268.91,-334.63C268.91,-334.63 188.89,-334.63 188.89,-334.63 182.89,-334.63 176.89,-328.63 176.89,-322.63 176.89,-322.63 176.89,-305.37 176.89,-305.37 176.89,-299.37 182.89,-293.37 188.89,-293.37 188.89,-293.37 268.91,-293.37 268.91,-293.37 274.91,-293.37 280.91,-299.37 280.91,-305.37 280.91,-305.37 280.91,-322.63 280.91,-322.63 280.91,-328.63 274.91,-334.63 268.91,-334.63"/>
<text text-anchor="start" x="184.65" y="-317.43" font-family="Helvetica,sans-Serif" font-weight="bold" font-size="11.00" fill="#111827">Dashed red edge</text>
<text text-anchor="start" x="189.53" y="-302.32" font-family="Helvetica,sans-Serif" font-size="9.00" fill="#374151">feedback/retraining</text>
</g>
<!-- l1&#45;&gt;l2 -->
<g id="edge16" class="edge">
<title>l1&#45;&gt;l2</title>
<path fill="none" stroke="#dc2626" stroke-width="1.3" stroke-dasharray="5,2" d="M121.1,-314C135.63,-314 152.19,-314 167.85,-314"/>
<polygon fill="#dc2626" stroke="#dc2626" stroke-width="1.3" points="167.48,-316.45 174.48,-314 167.48,-311.55 167.48,-316.45"/>
</g>
<!-- l3 -->
<g id="node17" class="node">
<title>l3</title>
<path fill="white" stroke="#d1d5db" d="M407.31,-334.63C407.31,-334.63 365.54,-334.63 365.54,-334.63 359.54,-334.63 353.54,-328.63 353.54,-322.63 353.54,-322.63 353.54,-305.37 353.54,-305.37 353.54,-299.37 359.54,-293.37 365.54,-293.37 365.54,-293.37 407.31,-293.37 407.31,-293.37 413.31,-293.37 419.31,-299.37 419.31,-305.37 419.31,-305.37 419.31,-322.63 419.31,-322.63 419.31,-328.63 413.31,-334.63 407.31,-334.63"/>
<text text-anchor="start" x="367.3" y="-317.43" font-family="Helvetica,sans-Serif" font-weight="bold" font-size="11.00" fill="#111827">Cluster</text>
<text text-anchor="start" x="361.3" y="-302.32" font-family="Helvetica,sans-Serif" font-size="9.00" fill="#374151">phase/stage</text>
</g>
<!-- l2&#45;&gt;l3 -->
<g id="edge17" class="edge">
<title>l2&#45;&gt;l3</title>
<path fill="none" stroke="#6b7280" stroke-width="1.3" d="M281.26,-314C301.73,-314 324.97,-314 344.3,-314"/>
<polygon fill="#6b7280" stroke="#6b7280" stroke-width="1.3" points="344.19,-316.45 351.19,-314 344.19,-311.55 344.19,-316.45"/>
</g>
</g>
</svg>
